<svg width="69" height="68" viewBox="0 0 69 68" fill="none" xmlns="http://www.w3.org/2000/svg">
<path d="M23.1667 68C19.0111 68 15.4537 66.5204 12.4944 63.5611C9.53518 60.6019 8.05556 57.0444 8.05556 52.8889V22.0056C5.85185 21.187 4.04167 19.8176 2.625 17.8972C1.20833 15.9769 0.5 13.7889 0.5 11.3333C0.5 8.18519 1.60185 5.50926 3.80556 3.30556C6.00926 1.10185 8.68519 0 11.8333 0C14.9815 0 17.6574 1.10185 19.8611 3.30556C22.0648 5.50926 23.1667 8.18519 23.1667 11.3333C23.1667 13.7889 22.4583 15.9769 21.0417 17.8972C19.625 19.8176 17.8148 21.187 15.6111 22.0056V52.8889C15.6111 54.9667 16.3509 56.7454 17.8306 58.225C19.3102 59.7046 21.0889 60.4444 23.1667 60.4444C25.2444 60.4444 27.0231 59.7046 28.5028 58.225C29.9824 56.7454 30.7222 54.9667 30.7222 52.8889V15.1111C30.7222 10.9556 32.2019 7.39815 35.1611 4.43889C38.1204 1.47963 41.6778 0 45.8333 0C49.9889 0 53.5463 1.47963 56.5056 4.43889C59.4648 7.39815 60.9444 10.9556 60.9444 15.1111V45.9944C63.1481 46.813 64.9583 48.1824 66.375 50.1028C67.7917 52.0231 68.5 54.2111 68.5 56.6667C68.5 59.8148 67.3981 62.4907 65.1944 64.6944C62.9907 66.8981 60.3148 68 57.1667 68C54.0185 68 51.3426 66.8981 49.1389 64.6944C46.9352 62.4907 45.8333 59.8148 45.8333 56.6667C45.8333 54.2111 46.5417 52.0074 47.9583 50.0556C49.375 48.1037 51.1852 46.75 53.3889 45.9944V15.1111C53.3889 13.0333 52.6491 11.2546 51.1694 9.775C49.6898 8.29537 47.9111 7.55556 45.8333 7.55556C43.7556 7.55556 41.9769 8.29537 40.4972 9.775C39.0176 11.2546 38.2778 13.0333 38.2778 15.1111V52.8889C38.2778 57.0444 36.7981 60.6019 33.8389 63.5611C30.8796 66.5204 27.3222 68 23.1667 68ZM11.8333 15.1111C12.9037 15.1111 13.8009 14.7491 14.525 14.025C15.2491 13.3009 15.6111 12.4037 15.6111 11.3333C15.6111 10.263 15.2491 9.36574 14.525 8.64167C13.8009 7.91759 12.9037 7.55556 11.8333 7.55556C10.763 7.55556 9.86574 7.91759 9.14167 8.64167C8.41759 9.36574 8.05556 10.263 8.05556 11.3333C8.05556 12.4037 8.41759 13.3009 9.14167 14.025C9.86574 14.7491 10.763 15.1111 11.8333 15.1111ZM57.1667 60.4444C58.237 60.4444 59.1343 60.0824 59.8583 59.3583C60.5824 58.6343 60.9444 57.737 60.9444 56.6667C60.9444 55.5963 60.5824 54.6991 59.8583 53.975C59.1343 53.2509 58.237 52.8889 57.1667 52.8889C56.0963 52.8889 55.1991 53.2509 54.475 53.975C53.7509 54.6991 53.3889 55.5963 53.3889 56.6667C53.3889 57.737 53.7509 58.6343 54.475 59.3583C55.1991 60.0824 56.0963 60.4444 57.1667 60.4444Z" fill="#1C7364"/>
</svg>
