<svg width="69" height="68" viewBox="0 0 69 68" fill="none" xmlns="http://www.w3.org/2000/svg">
<path d="M10.5 45.3333V41.5556H0.5V34H20.5V26.4444H4.5C3.36667 26.4444 2.41667 26.0824 1.65 25.3583C0.883333 24.6343 0.5 23.737 0.5 22.6667V7.55556C0.5 6.48519 0.883333 5.58796 1.65 4.86389C2.41667 4.13981 3.36667 3.77778 4.5 3.77778H10.5V0H18.5V3.77778H28.5V11.3333H8.5V18.8889H24.5C25.6333 18.8889 26.5833 19.2509 27.35 19.975C28.1167 20.6991 28.5 21.5963 28.5 22.6667V37.7778C28.5 38.8481 28.1167 39.7454 27.35 40.4694C26.5833 41.1935 25.6333 41.5556 24.5 41.5556H18.5V45.3333H10.5ZM40.3 68L23.3 51.9444L28.9 46.6556L40.3 57.4222L62.9 36.0778L68.5 41.3667L40.3 68Z" fill="#1C7364"/>
</svg>
