<svg width="19" height="26" viewBox="0 0 19 26" fill="none" xmlns="http://www.w3.org/2000/svg">
    <path d="M9.5 26C9.18333 26 8.91191 25.9133 8.68571 25.74C8.45952 25.5667 8.28988 25.3392 8.17679 25.0575C7.74702 23.8442 7.20417 22.7067 6.54821 21.645C5.91488 20.5833 5.02143 19.3375 3.86786 17.9075C2.71429 16.4775 1.7756 15.1125 1.05179 13.8125C0.350595 12.5125 0 10.9417 0 9.1C0 6.565 0.916072 4.42 2.74821 2.665C4.60298 0.888333 6.85357 0 9.5 0C12.1464 0 14.3857 0.888333 16.2179 2.665C18.0726 4.42 19 6.565 19 9.1C19 11.0717 18.6042 12.7183 17.8125 14.04C17.0435 15.34 16.15 16.6292 15.1321 17.9075C13.9107 19.4675 12.9833 20.7675 12.35 21.8075C11.7393 22.8258 11.2304 23.9092 10.8232 25.0575C10.7101 25.3608 10.5292 25.5992 10.2804 25.7725C10.0542 25.9242 9.79405 26 9.5 26ZM9.5 21.3525C9.88452 20.6158 10.3143 19.89 10.7893 19.175C11.2869 18.46 12.0107 17.5067 12.9607 16.315C13.9333 15.1017 14.725 13.9858 15.3357 12.9675C15.969 11.9275 16.2857 10.6383 16.2857 9.1C16.2857 7.30167 15.6185 5.77417 14.2839 4.5175C12.972 3.23917 11.3774 2.6 9.5 2.6C7.62262 2.6 6.01667 3.23917 4.68214 4.5175C3.37024 5.77417 2.71429 7.30167 2.71429 9.1C2.71429 10.6383 3.01964 11.9275 3.63036 12.9675C4.26369 13.9858 5.06667 15.1017 6.03929 16.315C6.98929 17.5067 7.70179 18.46 8.17679 19.175C8.67441 19.89 9.11548 20.6158 9.5 21.3525ZM9.5 12.35C10.45 12.35 11.253 12.0358 11.9089 11.4075C12.5649 10.7792 12.8929 10.01 12.8929 9.1C12.8929 8.19 12.5649 7.42083 11.9089 6.7925C11.253 6.16417 10.45 5.85 9.5 5.85C8.55 5.85 7.74702 6.16417 7.09107 6.7925C6.43512 7.42083 6.10714 8.19 6.10714 9.1C6.10714 10.01 6.43512 10.7792 7.09107 11.4075C7.74702 12.0358 8.55 12.35 9.5 12.35Z" fill="#1C7364"/>
</svg>
