<svg width="69" height="68" viewBox="0 0 69 68" fill="none" xmlns="http://www.w3.org/2000/svg">
<path d="M32.881 68C28.4016 68 24.1921 67.1075 20.2524 65.3225C16.3127 63.5375 12.8857 61.115 9.97143 58.055C7.05714 54.995 4.75 51.3967 3.05 47.26C1.35 43.1233 0.5 38.7033 0.5 34C0.5 29.2967 1.35 24.8767 3.05 20.74C4.75 16.6033 7.05714 13.005 9.97143 9.945C12.8857 6.885 16.3127 4.4625 20.2524 2.6775C24.1921 0.8925 28.4016 0 32.881 0C41.0841 0 48.1944 2.77667 54.2119 8.33C60.2294 13.8833 63.8048 20.7967 64.9381 29.07C63.8587 28.5033 62.7389 28.0642 61.5786 27.7525C60.4183 27.4408 59.2175 27.2567 57.9762 27.2C56.9508 23.0633 55.1024 19.38 52.431 16.15C49.7595 12.92 46.481 10.4833 42.5952 8.84V10.2C42.5952 12.07 41.9611 13.6708 40.6929 15.0025C39.4246 16.3342 37.9 17 36.119 17H29.6429V23.8C29.6429 24.7633 29.3325 25.5708 28.7119 26.2225C28.0913 26.8742 27.3222 27.2 26.4048 27.2H19.9286V34H39.3571C39.9508 34 40.504 34.1558 41.0167 34.4675C41.5294 34.7792 41.9206 35.2183 42.1905 35.785C41.273 37.315 40.5714 38.93 40.0857 40.63C39.6 42.33 39.3571 44.0867 39.3571 45.9C39.3571 49.47 40.2341 52.785 41.9881 55.845C43.7421 58.905 45.5365 61.7667 47.3714 64.43C45.1587 65.5633 42.8381 66.4417 40.4095 67.065C37.981 67.6883 35.4714 68 32.881 68ZM29.6429 61.03V54.4C27.8619 54.4 26.3373 53.7342 25.069 52.4025C23.8008 51.0708 23.1667 49.47 23.1667 47.6V44.2L7.62381 27.88C7.46191 28.9 7.31349 29.92 7.17857 30.94C7.04365 31.96 6.97619 32.98 6.97619 34C6.97619 40.8567 9.12143 46.8633 13.4119 52.02C17.7024 57.1767 23.1127 60.18 29.6429 61.03ZM57.1667 68C56.7889 68 56.4651 67.8867 56.1952 67.66C55.9254 67.4333 55.7365 67.15 55.6286 66.81C55.0349 64.8267 54.1984 62.985 53.119 61.285C52.0397 59.585 50.8794 57.9133 49.6381 56.27C48.5048 54.7967 47.5873 53.1817 46.8857 51.425C46.1841 49.6683 45.8333 47.8267 45.8333 45.9C45.8333 42.6133 46.9397 39.8083 49.1524 37.485C51.3651 35.1617 54.0365 34 57.1667 34C60.2968 34 62.9683 35.1617 65.181 37.485C67.3937 39.8083 68.5 42.6133 68.5 45.9C68.5 47.8267 68.1357 49.6542 67.4071 51.3825C66.6786 53.1108 65.7746 54.74 64.6952 56.27C63.454 57.9133 62.2937 59.585 61.2143 61.285C60.1349 62.985 59.2984 64.8267 58.7048 66.81C58.5968 67.15 58.4079 67.4333 58.1381 67.66C57.8683 67.8867 57.5444 68 57.1667 68ZM57.1667 58.395C57.7064 57.4317 58.3 56.5392 58.9476 55.7175C59.5952 54.8958 60.2159 54.06 60.8095 53.21C61.5651 52.1333 62.2262 50.9858 62.7929 49.7675C63.3595 48.5492 63.6429 47.26 63.6429 45.9C63.6429 44.03 63.0087 42.4292 61.7405 41.0975C60.4722 39.7658 58.9476 39.1 57.1667 39.1C55.3857 39.1 53.8611 39.7658 52.5929 41.0975C51.3246 42.4292 50.6905 44.03 50.6905 45.9C50.6905 47.26 50.9738 48.5492 51.5405 49.7675C52.1071 50.9858 52.7683 52.1333 53.5238 53.21C54.1714 54.06 54.8056 54.8958 55.4262 55.7175C56.0468 56.5392 56.627 57.4317 57.1667 58.395ZM57.1667 50.15C56.0333 50.15 55.0754 49.7392 54.2929 48.9175C53.5103 48.0958 53.119 47.09 53.119 45.9C53.119 44.71 53.5103 43.7042 54.2929 42.8825C55.0754 42.0608 56.0333 41.65 57.1667 41.65C58.3 41.65 59.2579 42.0608 60.0405 42.8825C60.823 43.7042 61.2143 44.71 61.2143 45.9C61.2143 47.09 60.823 48.0958 60.0405 48.9175C59.2579 49.7392 58.3 50.15 57.1667 50.15Z" fill="#1C7364"/>
</svg>
