<svg width="19" height="18" viewBox="0 0 19 18" fill="none" xmlns="http://www.w3.org/2000/svg">
<path d="M11.4104 4.05809C12.1586 4.20378 12.8462 4.56898 13.3852 5.10696C13.9242 5.64494 14.2901 6.33121 14.4361 7.07795M11.4104 1C12.9648 1.17235 14.4143 1.8671 15.5209 2.97018C16.6275 4.07326 17.3254 5.5191 17.5 7.0703M16.734 13.1712V15.4648C16.7349 15.6777 16.6912 15.8884 16.6057 16.0835C16.5203 16.2786 16.3949 16.4537 16.2377 16.5977C16.0805 16.7416 15.8949 16.8512 15.6928 16.9194C15.4908 16.9876 15.2766 17.013 15.0642 16.9938C12.7071 16.7382 10.443 15.9343 8.45371 14.6467C6.60295 13.4729 5.03384 11.9068 3.85779 10.0596C2.56326 8.0651 1.75765 5.79431 1.50622 3.43118C1.48708 3.21976 1.51225 3.00669 1.58014 2.80551C1.64802 2.60434 1.75713 2.41948 1.90052 2.2627C2.04391 2.10592 2.21843 1.98066 2.41298 1.89489C2.60753 1.80912 2.81785 1.76472 3.03053 1.76452H5.32849C5.70022 1.76087 6.06061 1.89226 6.34247 2.13419C6.62433 2.37613 6.80843 2.71211 6.86046 3.0795C6.95745 3.81349 7.13732 4.53418 7.39665 5.22781C7.49971 5.50145 7.52201 5.79884 7.46092 6.08474C7.39983 6.37065 7.2579 6.63308 7.05195 6.84095L6.07915 7.81189C7.16958 9.7259 8.75739 11.3107 10.6751 12.399L11.6479 11.4281C11.8561 11.2225 12.1191 11.0809 12.4055 11.0199C12.692 10.9589 12.9899 10.9812 13.2641 11.084C13.9591 11.3429 14.6811 11.5224 15.4165 11.6192C15.7886 11.6716 16.1284 11.8587 16.3713 12.1448C16.6143 12.431 16.7433 12.7962 16.734 13.1712Z" stroke="#1E1E1E" stroke-width="2" stroke-linecap="round" stroke-linejoin="round"/>
</svg>
