<svg width="22" height="21" viewBox="0 0 22 21" fill="none" xmlns="http://www.w3.org/2000/svg">
<path d="M10 3.5H3C2.46957 3.5 1.96086 3.68437 1.58579 4.01256C1.21071 4.34075 1 4.78587 1 5.25V17.5C1 17.9641 1.21071 18.4092 1.58579 18.7374C1.96086 19.0656 2.46957 19.25 3 19.25H17C17.5304 19.25 18.0391 19.0656 18.4142 18.7374C18.7893 18.4092 19 17.9641 19 17.5V11.375M17.5 2.1875C17.8978 1.8394 18.4374 1.64384 19 1.64384C19.5626 1.64384 20.1022 1.8394 20.5 2.1875C20.8978 2.5356 21.1213 3.00772 21.1213 3.5C21.1213 3.99228 20.8978 4.4644 20.5 4.8125L11 13.125L7 14L8 10.5L17.5 2.1875Z" stroke="black" stroke-width="1.6" stroke-linecap="round" stroke-linejoin="round"/>
</svg>
