<svg width="47" height="46" viewBox="0 0 47 46" fill="none" xmlns="http://www.w3.org/2000/svg">
<path d="M28.5148 10.0275C30.4788 10.4099 32.2837 11.3686 33.6986 12.7808C35.1135 14.193 36.074 15.9944 36.4571 17.9546M28.5148 2C32.5951 2.45242 36.4 4.27614 39.3048 7.17172C42.2096 10.0673 44.0416 13.8626 44.5 17.9345M42.4893 33.9494V39.97C42.4916 40.5289 42.3769 41.0821 42.1525 41.5942C41.9282 42.1063 41.5991 42.566 41.1865 42.9439C40.7739 43.3217 40.2867 43.6094 39.7562 43.7885C39.2257 43.9675 38.6637 44.034 38.1059 43.9837C31.9186 43.3127 25.9753 41.2025 20.7535 37.8226C15.8953 34.7414 11.7763 30.6303 8.68921 25.7814C5.29106 20.5459 3.17632 14.5851 2.51632 8.38184C2.46607 7.82688 2.53215 7.26755 2.71035 6.73947C2.88856 6.21139 3.17497 5.72613 3.55137 5.31459C3.92776 4.90304 4.38589 4.57423 4.89658 4.34908C5.40728 4.12394 5.95935 4.00739 6.51764 4.00687H12.5498C13.5256 3.99728 14.4716 4.34217 15.2115 4.97726C15.9514 5.61234 16.4346 6.49428 16.5712 7.45869C16.8258 9.38541 17.298 11.2772 17.9787 13.098C18.2492 13.8163 18.3078 14.5969 18.1474 15.3474C17.987 16.0979 17.6145 16.7868 17.0739 17.3325L14.5203 19.8812C17.3826 24.9055 21.5506 29.0655 26.5846 31.9224L29.1382 29.3737C29.6848 28.8341 30.3751 28.4623 31.127 28.3022C31.8789 28.1422 32.6611 28.2006 33.3808 28.4706C35.205 29.15 37.1004 29.6213 39.0309 29.8754C40.0076 30.0129 40.8996 30.504 41.5373 31.2551C42.1749 32.0063 42.5138 32.9651 42.4893 33.9494Z" stroke="#1C7364" stroke-width="4" stroke-linecap="round" stroke-linejoin="round"/>
</svg>
