<svg width="43" height="42" viewBox="0 0 43 42" fill="none" xmlns="http://www.w3.org/2000/svg">
<path d="M6.22727 28.7368C4.63636 28.7368 3.28409 28.0921 2.17045 26.8026C1.05682 25.5132 0.5 23.9474 0.5 22.1053C0.5 20.2632 1.05682 18.6974 2.17045 17.4079C3.28409 16.1184 4.63636 15.4737 6.22727 15.4737V11.0526C6.22727 9.83684 6.60114 8.79605 7.34886 7.93026C8.09659 7.06447 8.99545 6.63158 10.0455 6.63158H15.7727C15.7727 4.78947 16.3295 3.22368 17.4432 1.93421C18.5568 0.644737 19.9091 0 21.5 0C23.0909 0 24.4432 0.644737 25.5568 1.93421C26.6705 3.22368 27.2273 4.78947 27.2273 6.63158H32.9545C34.0045 6.63158 34.9034 7.06447 35.6511 7.93026C36.3989 8.79605 36.7727 9.83684 36.7727 11.0526V15.4737C38.3636 15.4737 39.7159 16.1184 40.8295 17.4079C41.9432 18.6974 42.5 20.2632 42.5 22.1053C42.5 23.9474 41.9432 25.5132 40.8295 26.8026C39.7159 28.0921 38.3636 28.7368 36.7727 28.7368V37.5789C36.7727 38.7947 36.3989 39.8355 35.6511 40.7013C34.9034 41.5671 34.0045 42 32.9545 42H10.0455C8.99545 42 8.09659 41.5671 7.34886 40.7013C6.60114 39.8355 6.22727 38.7947 6.22727 37.5789V28.7368ZM15.7727 24.3158C16.5682 24.3158 17.2443 23.9934 17.8011 23.3487C18.358 22.7039 18.6364 21.9211 18.6364 21C18.6364 20.0789 18.358 19.2961 17.8011 18.6513C17.2443 18.0066 16.5682 17.6842 15.7727 17.6842C14.9773 17.6842 14.3011 18.0066 13.7443 18.6513C13.1875 19.2961 12.9091 20.0789 12.9091 21C12.9091 21.9211 13.1875 22.7039 13.7443 23.3487C14.3011 23.9934 14.9773 24.3158 15.7727 24.3158ZM27.2273 24.3158C28.0227 24.3158 28.6989 23.9934 29.2557 23.3487C29.8125 22.7039 30.0909 21.9211 30.0909 21C30.0909 20.0789 29.8125 19.2961 29.2557 18.6513C28.6989 18.0066 28.0227 17.6842 27.2273 17.6842C26.4318 17.6842 25.7557 18.0066 25.1989 18.6513C24.642 19.2961 24.3636 20.0789 24.3636 21C24.3636 21.9211 24.642 22.7039 25.1989 23.3487C25.7557 23.9934 26.4318 24.3158 27.2273 24.3158ZM13.8636 33.1579H29.1364V28.7368H13.8636V33.1579ZM10.0455 37.5789H32.9545V11.0526H10.0455V37.5789Z" fill="#1C7364"/>
</svg>
