<svg width="43" height="42" viewBox="0 0 43 42" fill="none" xmlns="http://www.w3.org/2000/svg">
<path d="M21.4902 0.5C26.917 0.5 32.0213 2.61281 35.8555 6.45605C39.6991 10.3089 42 15.4075 42 20.8223C41.9998 32.0147 32.6859 41.1348 21.4902 41.1348H21.4814C18.0773 41.1348 14.7379 40.283 11.7744 38.6641L11.5996 38.5693L11.4072 38.6191L1.21094 41.2959L3.93555 31.3506L3.99023 31.1494L3.88672 30.9697C2.11182 27.8865 1.17773 24.3909 1.17773 20.8125C1.17773 9.61377 10.2916 0.500211 21.4902 0.5ZM21.5 3.01562C11.6803 3.01562 3.69336 11.0018 3.69336 20.8125C3.69336 24.1776 4.62899 27.4483 6.41406 30.2852L6.70898 30.7539L5.02344 36.9277L4.7959 37.7627L5.63281 37.543L11.9727 35.8799L12.4219 36.1484H12.4229C15.1536 37.7695 18.2887 38.6279 21.4902 38.6279C31.1403 38.6279 39.2281 30.8964 39.4785 21.2812L39.4844 20.8223C39.4939 16.0524 37.4236 11.5885 34.0791 8.23438C30.7227 4.86833 26.2546 3.01562 21.5 3.01562ZM14.1123 11.7129C14.4634 11.7129 14.7939 11.7129 15.0752 11.7305H15.0771C15.1349 11.7339 15.1924 11.7335 15.2314 11.7334C15.2757 11.7333 15.3068 11.7337 15.3359 11.7354C15.389 11.7384 15.4177 11.7458 15.4414 11.7568C15.4758 11.7729 15.593 11.841 15.748 12.1611L15.8164 12.3145C16.0319 12.8344 16.3984 13.7308 16.7295 14.5352C17.0535 15.3223 17.3571 16.0549 17.4336 16.208C17.4856 16.3121 17.513 16.3923 17.5205 16.4609C17.5269 16.5202 17.5204 16.5859 17.4805 16.6699C17.0211 17.5886 16.5571 18.0188 16.2256 18.373C16.0717 18.5375 15.8671 18.7624 15.79 19.0547C15.702 19.3891 15.8011 19.6987 15.9678 19.9854V19.9863C17.0014 21.7602 18.0446 22.9737 19.2334 23.9404C20.414 24.9004 21.722 25.6016 23.251 26.3662V26.3672C23.5444 26.5166 23.8583 26.6212 24.1826 26.5811C24.5261 26.5384 24.7818 26.3469 24.9805 26.1172C25.282 25.77 26.3009 24.5809 26.6699 24.0225C26.7328 23.9273 26.7796 23.8852 26.8047 23.8672C26.8245 23.8531 26.8361 23.85 26.8477 23.8486C26.8657 23.8465 26.9036 23.8466 26.9746 23.8633C27.0472 23.8804 27.1335 23.9097 27.25 23.9531L27.2588 23.9561C27.4652 24.029 28.1919 24.3681 28.9707 24.7432C29.733 25.1103 30.4975 25.4882 30.751 25.6172L30.7578 25.6211C31.0412 25.7602 31.2217 25.8392 31.3721 25.9238C31.4668 25.9772 31.5054 26.0087 31.5176 26.0205C31.52 26.032 31.5277 26.0673 31.5332 26.1367C31.5422 26.2501 31.5424 26.4101 31.5254 26.6094C31.4915 27.0068 31.3926 27.5299 31.1914 28.0986C31.0333 28.5455 30.5273 29.0508 29.8535 29.4834C29.1917 29.9083 28.49 30.1851 28.082 30.2461C27.2973 30.3619 26.6197 30.3888 25.7461 30.2236C24.8576 30.0557 23.7482 29.6857 22.1104 28.9785H22.1113C17.6711 27.0573 14.5733 22.8987 13.6729 21.6309L13.4238 21.2793C13.2903 21.0968 12.7884 20.4248 12.3164 19.4941C11.8345 18.5439 11.4063 17.3672 11.4062 16.2002C11.4062 13.8538 12.6132 12.7239 13.0918 12.1992C13.46 11.8023 13.8805 11.7129 14.1123 11.7129Z" fill="#1C7364" stroke="#1C7364"/>
</svg>
