<svg width="24" height="26" viewBox="0 0 24 26" fill="none" xmlns="http://www.w3.org/2000/svg">
<path d="M1.815 7.11997L12 13.0116L22.185 7.11997M12 24.76V13M22.5 17.6666V8.3333C22.4996 7.92412 22.3916 7.52224 22.1868 7.16799C21.982 6.81373 21.6877 6.51956 21.3333 6.31497L13.1667 1.6483C12.812 1.44351 12.4096 1.33569 12 1.33569C11.5904 1.33569 11.188 1.44351 10.8333 1.6483L2.66667 6.31497C2.31231 6.51956 2.01798 6.81373 1.81321 7.16799C1.60843 7.52224 1.50042 7.92412 1.5 8.3333V17.6666C1.50042 18.0758 1.60843 18.4777 1.81321 18.8319C2.01798 19.1862 2.31231 19.4804 2.66667 19.685L10.8333 24.3516C11.188 24.5564 11.5904 24.6642 12 24.6642C12.4096 24.6642 12.812 24.5564 13.1667 24.3516L21.3333 19.685C21.6877 19.4804 21.982 19.1862 22.1868 18.8319C22.3916 18.4777 22.4996 18.0758 22.5 17.6666Z" stroke="#444444" stroke-width="1.6" stroke-linecap="round" stroke-linejoin="round"/>
</svg>
