<svg width="24" height="22" viewBox="0 0 24 22" fill="none" xmlns="http://www.w3.org/2000/svg">
<path d="M16 15.3333V1.25H1V15.3333H16ZM16 15.3333H23V9.91667L20 6.66667H16L16 15.3333ZM8 18.0417C8 19.5374 6.88071 20.75 5.5 20.75C4.11929 20.75 3 19.5374 3 18.0417C3 16.5459 4.11929 15.3333 5.5 15.3333C6.88071 15.3333 8 16.5459 8 18.0417ZM21 18.0417C21 19.5374 19.8807 20.75 18.5 20.75C17.1193 20.75 16 19.5374 16 18.0417C16 16.5459 17.1193 15.3333 18.5 15.3333C19.8807 15.3333 21 16.5459 21 18.0417Z" stroke="#444444" stroke-width="1.6" stroke-linecap="round" stroke-linejoin="round"/>
</svg>
