<svg width="20" height="29" viewBox="0 0 20 29" fill="none" xmlns="http://www.w3.org/2000/svg">
<path d="M10 10.8749V14.4999L11.875 16.3124M15.6375 20.9645L15.2 25.5924C15.1437 26.195 14.8556 26.7552 14.3927 27.1623C13.9299 27.5695 13.3258 27.7941 12.7 27.7916H7.2875C6.66166 27.7941 6.05763 27.5695 5.59475 27.1623C5.13188 26.7552 4.84382 26.195 4.7875 25.5924L4.35 20.9645M4.3625 8.03536L4.8 3.40744C4.85613 2.80699 5.14241 2.24851 5.60264 1.84162C6.06287 1.43474 6.66382 1.20884 7.2875 1.20827H12.725C13.3508 1.20582 13.9549 1.43036 14.4177 1.83754C14.8806 2.24472 15.1687 2.80491 15.225 3.40744L15.6625 8.03536M18.75 14.4999C18.75 19.1713 14.8325 22.9583 10 22.9583C5.16751 22.9583 1.25 19.1713 1.25 14.4999C1.25 9.82853 5.16751 6.04161 10 6.04161C14.8325 6.04161 18.75 9.82853 18.75 14.4999Z" stroke="#444444" stroke-width="1.6" stroke-linecap="round" stroke-linejoin="round"/>
</svg>
