<svg width="14" height="14" viewBox="0 0 14 14" fill="none" xmlns="http://www.w3.org/2000/svg">
<path d="M7.00016 13.6667C6.08905 13.6667 5.22794 13.4917 4.41683 13.1417C3.60572 12.7917 2.89739 12.3139 2.29183 11.7084C1.68627 11.1028 1.2085 10.3945 0.858496 9.58337C0.508496 8.77226 0.333496 7.91115 0.333496 7.00004C0.333496 6.07782 0.508496 5.21393 0.858496 4.40837C1.2085 3.60282 1.68627 2.89726 2.29183 2.29171C2.89739 1.68615 3.60572 1.20837 4.41683 0.858374C5.22794 0.508374 6.08905 0.333374 7.00016 0.333374C7.92239 0.333374 8.78627 0.508374 9.59183 0.858374C10.3974 1.20837 11.1029 1.68615 11.7085 2.29171C12.3141 2.89726 12.7918 3.60282 13.1418 4.40837C13.4918 5.21393 13.6668 6.07782 13.6668 7.00004C13.6668 7.91115 13.4918 8.77226 13.1418 9.58337C12.7918 10.3945 12.3141 11.1028 11.7085 11.7084C11.1029 12.3139 10.3974 12.7917 9.59183 13.1417C8.78627 13.4917 7.92239 13.6667 7.00016 13.6667ZM7.00016 12.3C7.28905 11.9 7.53905 11.4834 7.75016 11.05C7.96127 10.6167 8.1335 10.1556 8.26683 9.66671H5.7335C5.86683 10.1556 6.03905 10.6167 6.25016 11.05C6.46127 11.4834 6.71127 11.9 7.00016 12.3ZM5.26683 12.0334C5.06683 11.6667 4.89183 11.2862 4.74183 10.8917C4.59183 10.4973 4.46683 10.0889 4.36683 9.66671H2.40016C2.72239 10.2223 3.12516 10.7056 3.6085 11.1167C4.09183 11.5278 4.64461 11.8334 5.26683 12.0334ZM8.7335 12.0334C9.35572 11.8334 9.9085 11.5278 10.3918 11.1167C10.8752 10.7056 11.2779 10.2223 11.6002 9.66671H9.6335C9.5335 10.0889 9.4085 10.4973 9.2585 10.8917C9.1085 11.2862 8.9335 11.6667 8.7335 12.0334ZM1.8335 8.33337H4.10016C4.06683 8.11115 4.04183 7.89171 4.02516 7.67504C4.0085 7.45837 4.00016 7.23337 4.00016 7.00004C4.00016 6.76671 4.0085 6.54171 4.02516 6.32504C4.04183 6.10837 4.06683 5.88893 4.10016 5.66671H1.8335C1.77794 5.88893 1.73627 6.10837 1.7085 6.32504C1.68072 6.54171 1.66683 6.76671 1.66683 7.00004C1.66683 7.23337 1.68072 7.45837 1.7085 7.67504C1.73627 7.89171 1.77794 8.11115 1.8335 8.33337ZM5.4335 8.33337H8.56683C8.60016 8.11115 8.62516 7.89171 8.64183 7.67504C8.6585 7.45837 8.66683 7.23337 8.66683 7.00004C8.66683 6.76671 8.6585 6.54171 8.64183 6.32504C8.62516 6.10837 8.60016 5.88893 8.56683 5.66671H5.4335C5.40016 5.88893 5.37516 6.10837 5.3585 6.32504C5.34183 6.54171 5.3335 6.76671 5.3335 7.00004C5.3335 7.23337 5.34183 7.45837 5.3585 7.67504C5.37516 7.89171 5.40016 8.11115 5.4335 8.33337ZM9.90016 8.33337H12.1668C12.2224 8.11115 12.2641 7.89171 12.2918 7.67504C12.3196 7.45837 12.3335 7.23337 12.3335 7.00004C12.3335 6.76671 12.3196 6.54171 12.2918 6.32504C12.2641 6.10837 12.2224 5.88893 12.1668 5.66671H9.90016C9.9335 5.88893 9.9585 6.10837 9.97516 6.32504C9.99183 6.54171 10.0002 6.76671 10.0002 7.00004C10.0002 7.23337 9.99183 7.45837 9.97516 7.67504C9.9585 7.89171 9.9335 8.11115 9.90016 8.33337ZM9.6335 4.33337H11.6002C11.2779 3.77782 10.8752 3.29449 10.3918 2.88337C9.9085 2.47226 9.35572 2.16671 8.7335 1.96671C8.9335 2.33337 9.1085 2.71393 9.2585 3.10837C9.4085 3.50282 9.5335 3.91115 9.6335 4.33337ZM5.7335 4.33337H8.26683C8.1335 3.84449 7.96127 3.38337 7.75016 2.95004C7.53905 2.51671 7.28905 2.10004 7.00016 1.70004C6.71127 2.10004 6.46127 2.51671 6.25016 2.95004C6.03905 3.38337 5.86683 3.84449 5.7335 4.33337ZM2.40016 4.33337H4.36683C4.46683 3.91115 4.59183 3.50282 4.74183 3.10837C4.89183 2.71393 5.06683 2.33337 5.26683 1.96671C4.64461 2.16671 4.09183 2.47226 3.6085 2.88337C3.12516 3.29449 2.72239 3.77782 2.40016 4.33337Z" fill="#6300F8"/>
</svg>
