<svg width="16" height="18" viewBox="0 0 16 18" fill="none" xmlns="http://www.w3.org/2000/svg">
<path d="M1.4525 5.22005L8 9.00755L14.5475 5.22005M8 16.56V9.00005M14.75 12V6.00005C14.7497 5.737 14.6803 5.47866 14.5487 5.25092C14.417 5.02318 14.2278 4.83407 14 4.70255L8.75 1.70255C8.52197 1.5709 8.2633 1.50159 8 1.50159C7.73669 1.50159 7.47803 1.5709 7.25 1.70255L2 4.70255C1.7722 4.83407 1.58299 5.02318 1.45135 5.25092C1.31971 5.47866 1.25027 5.737 1.25 6.00005V12C1.25027 12.2631 1.31971 12.5214 1.45135 12.7492C1.58299 12.9769 1.7722 13.166 2 13.2975L7.25 16.2975C7.47803 16.4292 7.73669 16.4985 8 16.4985C8.2633 16.4985 8.52197 16.4292 8.75 16.2975L14 13.2975C14.2278 13.166 14.417 12.9769 14.5487 12.7492C14.6803 12.5214 14.7497 12.2631 14.75 12Z" stroke="#FF7700" stroke-width="1.6" stroke-linecap="round" stroke-linejoin="round"/>
</svg>
