<svg width="18" height="18" viewBox="0 0 18 18" fill="none" xmlns="http://www.w3.org/2000/svg">
<path d="M6.70833 17.3333L6.375 14.6666C6.19444 14.5972 6.02431 14.5138 5.86458 14.4166C5.70486 14.3194 5.54861 14.2152 5.39583 14.1041L2.91667 15.1458L0.625 11.1875L2.77083 9.56246C2.75694 9.46524 2.75 9.37149 2.75 9.28121V8.71871C2.75 8.62843 2.75694 8.53468 2.77083 8.43746L0.625 6.81246L2.91667 2.85413L5.39583 3.89579C5.54861 3.78468 5.70833 3.68052 5.875 3.58329C6.04167 3.48607 6.20833 3.40274 6.375 3.33329L6.70833 0.666626H11.2917L11.625 3.33329C11.8056 3.40274 11.9757 3.48607 12.1354 3.58329C12.2951 3.68052 12.4514 3.78468 12.6042 3.89579L15.0833 2.85413L17.375 6.81246L15.2292 8.43746C15.2431 8.53468 15.25 8.62843 15.25 8.71871V9.28121C15.25 9.37149 15.2361 9.46524 15.2083 9.56246L17.3542 11.1875L15.0625 15.1458L12.6042 14.1041C12.4514 14.2152 12.2917 14.3194 12.125 14.4166C11.9583 14.5138 11.7917 14.5972 11.625 14.6666L11.2917 17.3333H6.70833ZM9.04167 11.9166C9.84722 11.9166 10.5347 11.6319 11.1042 11.0625C11.6736 10.493 11.9583 9.80552 11.9583 8.99996C11.9583 8.1944 11.6736 7.5069 11.1042 6.93746C10.5347 6.36802 9.84722 6.08329 9.04167 6.08329C8.22222 6.08329 7.53125 6.36802 6.96875 6.93746C6.40625 7.5069 6.125 8.1944 6.125 8.99996C6.125 9.80552 6.40625 10.493 6.96875 11.0625C7.53125 11.6319 8.22222 11.9166 9.04167 11.9166Z" fill="#155DFC"/>
</svg>
