<svg width="26" height="28" viewBox="0 0 26 28" fill="none" xmlns="http://www.w3.org/2000/svg">
<path d="M2.815 8.11997L13 14.0116L23.185 8.11997M13 25.76V14M23.5 18.6666V9.3333C23.4996 8.92412 23.3916 8.52225 23.1868 8.16799C22.982 7.81373 22.6877 7.51956 22.3333 7.31497L14.1667 2.6483C13.812 2.44351 13.4096 2.33569 13 2.33569C12.5904 2.33569 12.188 2.44351 11.8333 2.6483L3.66667 7.31497C3.31231 7.51956 3.01798 7.81373 2.81321 8.16799C2.60843 8.52225 2.50042 8.92412 2.5 9.3333V18.6666C2.50042 19.0758 2.60843 19.4777 2.81321 19.8319C3.01798 20.1862 3.31231 20.4804 3.66667 20.685L11.8333 25.3516C12.188 25.5564 12.5904 25.6642 13 25.6642C13.4096 25.6642 13.812 25.5564 14.1667 25.3516L22.3333 20.685C22.6877 20.4804 22.982 20.1862 23.1868 19.8319C23.3916 19.4777 23.4996 19.0758 23.5 18.6666Z" stroke="#243F3C" stroke-width="4" stroke-linecap="round" stroke-linejoin="round"/>
</svg>
