<svg width="17" height="16" viewBox="0 0 17 16" fill="none" xmlns="http://www.w3.org/2000/svg">
<path d="M8.47998 2H3.81331C3.45969 2 3.12055 2.14048 2.8705 2.39052C2.62046 2.64057 2.47998 2.97971 2.47998 3.33333V12.6667C2.47998 13.0203 2.62046 13.3594 2.8705 13.6095C3.12055 13.8595 3.45969 14 3.81331 14H13.1466C13.5003 14 13.8394 13.8595 14.0895 13.6095C14.3395 13.3594 14.48 13.0203 14.48 12.6667V8" stroke="#3A3A3A" stroke-width="1.33333" stroke-linecap="round" stroke-linejoin="round"/>
<path d="M12.73 1.75C12.9952 1.48478 13.3549 1.33578 13.73 1.33578C14.105 1.33578 14.4648 1.48478 14.73 1.75C14.9952 2.01521 15.1442 2.37493 15.1442 2.75C15.1442 3.12507 14.9952 3.48478 14.73 3.75L8.72131 9.75933C8.563 9.9175 8.36744 10.0333 8.15264 10.096L6.2373 10.656C6.17994 10.6727 6.11913 10.6737 6.06124 10.6589C6.00336 10.6441 5.95052 10.614 5.90827 10.5717C5.86602 10.5294 5.8359 10.4766 5.82107 10.4187C5.80624 10.3608 5.80724 10.3 5.82397 10.2427L6.38397 8.32733C6.44699 8.1127 6.56299 7.91737 6.72131 7.75933L12.73 1.75Z" stroke="#3A3A3A" stroke-width="1.33333" stroke-linecap="round" stroke-linejoin="round"/>
</svg>
